solid cone
   facet normal 1.309793e-01 5.869793e-01 -7.989366e-01
      outer loop
         vertex 8.262408e+01 0.000000e+00 1.589924e+00
         vertex 7.535765e+01 0.000000e+00 3.986508e-01
         vertex 6.800501e+01 9.365959e+01 6.800501e+01
      endloop
   endfacet
   facet normal 2.165913e-01 5.869793e-01 -7.800920e-01
      outer loop
         vertex 8.262408e+01 0.000000e+00 1.589924e+00
         vertex 6.800501e+01 9.365959e+01 6.800501e+01
         vertex 8.971911e+01 0.000000e+00 3.559850e+00
      endloop
   endfacet
   facet normal 2.996644e-01 5.869793e-01 -7.521014e-01
      outer loop
         vertex 9.655957e+01 0.000000e+00 6.285336e+00
         vertex 8.971911e+01 0.000000e+00 3.559850e+00
         vertex 6.800501e+01 9.365959e+01 6.800501e+01
      endloop
   endfacet
   facet normal 3.792243e-01 5.869793e-01 -7.152931e-01
      outer loop
         vertex 1.030653e+02 0.000000e+00 9.734429e+00
         vertex 9.655957e+01 0.000000e+00 6.285336e+00
         vertex 6.800501e+01 9.365959e+01 6.800501e+01
      endloop
   endfacet
   facet normal 4.543382e-01 5.869793e-01 -6.700986e-01
      outer loop
         vertex 1.091599e+02 0.000000e+00 1.386669e+01
         vertex 1.030653e+02 0.000000e+00 9.734429e+00
         vertex 6.800501e+01 9.365959e+01 6.800501e+01
      endloop
   endfacet
   facet normal 5.241251e-01 5.869793e-01 -6.170480e-01
      outer loop
         vertex 1.147720e+02 0.000000e+00 1.863368e+01
         vertex 1.091599e+02 0.000000e+00 1.386669e+01
         vertex 6.800501e+01 9.365959e+01 6.800501e+01
      endloop
   endfacet
   facet normal 5.877673e-01 5.869793e-01 -5.567629e-01
      outer loop
         vertex 1.198358e+02 0.000000e+00 2.397950e+01
         vertex 1.147720e+02 0.000000e+00 1.863368e+01
         vertex 6.800501e+01 9.365959e+01 6.800501e+01
      endloop
   endfacet
   facet normal 6.445186e-01 5.869793e-01 -4.899501e-01
      outer loop
         vertex 1.242920e+02 0.000000e+00 2.984148e+01
         vertex 1.198358e+02 0.000000e+00 2.397950e+01
         vertex 6.800501e+01 9.365959e+01 6.800501e+01
      endloop
   endfacet
   facet normal 6.937133e-01 5.869793e-01 -4.173933e-01
      outer loop
         vertex 1.280883e+02 0.000000e+00 3.615089e+01
         vertex 1.242920e+02 0.000000e+00 2.984148e+01
         vertex 6.800501e+01 9.365959e+01 6.800501e+01
      endloop
   endfacet
   facet normal 7.347749e-01 5.869793e-01 -3.399429e-01
      outer loop
         vertex 1.311801e+02 0.000000e+00 4.283376e+01
         vertex 1.280883e+02 0.000000e+00 3.615089e+01
         vertex 6.800501e+01 9.365959e+01 6.800501e+01
      endloop
   endfacet
   facet normal 7.672218e-01 5.869793e-01 -2.585073e-01
      outer loop
         vertex 1.335312e+02 0.000000e+00 4.981174e+01
         vertex 1.311801e+02 0.000000e+00 4.283376e+01
         vertex 6.800501e+01 9.365959e+01 6.800501e+01
      endloop
   endfacet
   facet normal 7.906739e-01 5.869793e-01 -1.740405e-01
      outer loop
         vertex 1.351142e+02 0.000000e+00 5.700302e+01
         vertex 1.335312e+02 0.000000e+00 4.981174e+01
         vertex 6.800501e+01 9.365959e+01 6.800501e+01
      endloop
   endfacet
   facet normal 8.048560e-01 5.869793e-01 -8.753386e-02
      outer loop
         vertex 1.359103e+02 0.000000e+00 6.432329e+01
         vertex 1.351142e+02 0.000000e+00 5.700302e+01
         vertex 6.800501e+01 9.365959e+01 6.800501e+01
      endloop
   endfacet
   facet normal 8.096019e-01 5.869793e-01 0.000000e+00
      outer loop
         vertex 1.359103e+02 0.000000e+00 7.168673e+01
         vertex 1.359103e+02 0.000000e+00 6.432329e+01
         vertex 6.800501e+01 9.365959e+01 6.800501e+01
      endloop
   endfacet
   facet normal 8.048560e-01 5.869793e-01 8.753386e-02
      outer loop
         vertex 1.351142e+02 0.000000e+00 7.900700e+01
         vertex 1.359103e+02 0.000000e+00 7.168673e+01
         vertex 6.800501e+01 9.365959e+01 6.800501e+01
      endloop
   endfacet
   facet normal 7.906739e-01 5.869793e-01 1.740405e-01
      outer loop
         vertex 1.335312e+02 0.000000e+00 8.619828e+01
         vertex 1.351142e+02 0.000000e+00 7.900700e+01
         vertex 6.800501e+01 9.365959e+01 6.800501e+01
      endloop
   endfacet
   facet normal 7.672218e-01 5.869793e-01 2.585073e-01
      outer loop
         vertex 1.311801e+02 0.000000e+00 9.317626e+01
         vertex 1.335312e+02 0.000000e+00 8.619828e+01
         vertex 6.800501e+01 9.365959e+01 6.800501e+01
      endloop
   endfacet
   facet normal 7.347749e-01 5.869793e-01 3.399429e-01
      outer loop
         vertex 1.280883e+02 0.000000e+00 9.985913e+01
         vertex 1.311801e+02 0.000000e+00 9.317626e+01
         vertex 6.800501e+01 9.365959e+01 6.800501e+01
      endloop
   endfacet
   facet normal 6.937133e-01 5.869793e-01 4.173933e-01
      outer loop
         vertex 1.242920e+02 0.000000e+00 1.061685e+02
         vertex 1.280883e+02 0.000000e+00 9.985913e+01
         vertex 6.800501e+01 9.365959e+01 6.800501e+01
      endloop
   endfacet
   facet normal 6.445186e-01 5.869793e-01 4.899501e-01
      outer loop
         vertex 1.198358e+02 0.000000e+00 1.120305e+02
         vertex 1.242920e+02 0.000000e+00 1.061685e+02
         vertex 6.800501e+01 9.365959e+01 6.800501e+01
      endloop
   endfacet
   facet normal 5.877673e-01 5.869793e-01 5.567629e-01
      outer loop
         vertex 1.147720e+02 0.000000e+00 1.173763e+02
         vertex 1.198358e+02 0.000000e+00 1.120305e+02
         vertex 6.800501e+01 9.365959e+01 6.800501e+01
      endloop
   endfacet
   facet normal 5.241251e-01 5.869793e-01 6.170480e-01
      outer loop
         vertex 1.091599e+02 0.000000e+00 1.221433e+02
         vertex 1.147720e+02 0.000000e+00 1.173763e+02
         vertex 6.800501e+01 9.365959e+01 6.800501e+01
      endloop
   endfacet
   facet normal 4.543382e-01 5.869793e-01 6.700986e-01
      outer loop
         vertex 1.030653e+02 0.000000e+00 1.262756e+02
         vertex 1.091599e+02 0.000000e+00 1.221433e+02
         vertex 6.800501e+01 9.365959e+01 6.800501e+01
      endloop
   endfacet
   facet normal 3.792243e-01 5.869793e-01 7.152931e-01
      outer loop
         vertex 9.655957e+01 0.000000e+00 1.297247e+02
         vertex 1.030653e+02 0.000000e+00 1.262756e+02
         vertex 6.800501e+01 9.365959e+01 6.800501e+01
      endloop
   endfacet
   facet normal 2.996644e-01 5.869793e-01 7.521014e-01
      outer loop
         vertex 8.971911e+01 0.000000e+00 1.324502e+02
         vertex 9.655957e+01 0.000000e+00 1.297247e+02
         vertex 6.800501e+01 9.365959e+01 6.800501e+01
      endloop
   endfacet
   facet normal 2.165913e-01 5.869793e-01 7.800920e-01
      outer loop
         vertex 8.262408e+01 0.000000e+00 1.344201e+02
         vertex 8.971911e+01 0.000000e+00 1.324502e+02
         vertex 6.800501e+01 9.365959e+01 6.800501e+01
      endloop
   endfacet
   facet normal 1.309793e-01 5.869793e-01 7.989366e-01
      outer loop
         vertex 7.535765e+01 0.000000e+00 1.356114e+02
         vertex 8.262408e+01 0.000000e+00 1.344201e+02
         vertex 6.800501e+01 9.365959e+01 6.800501e+01
      endloop
   endfacet
   facet normal 4.383124e-02 5.869793e-01 8.084146e-01
      outer loop
         vertex 6.800501e+01 0.000000e+00 1.360100e+02
         vertex 7.535765e+01 0.000000e+00 1.356114e+02
         vertex 6.800501e+01 9.365959e+01 6.800501e+01
      endloop
   endfacet
   facet normal -4.383124e-02 5.869793e-01 8.084146e-01
      outer loop
         vertex 6.065238e+01 0.000000e+00 1.356114e+02
         vertex 6.800501e+01 0.000000e+00 1.360100e+02
         vertex 6.800501e+01 9.365959e+01 6.800501e+01
      endloop
   endfacet
   facet normal -1.309793e-01 5.869793e-01 7.989366e-01
      outer loop
         vertex 5.338594e+01 0.000000e+00 1.344201e+02
         vertex 6.065238e+01 0.000000e+00 1.356114e+02
         vertex 6.800501e+01 9.365959e+01 6.800501e+01
      endloop
   endfacet
   facet normal -2.165913e-01 5.869793e-01 7.800920e-01
      outer loop
         vertex 4.629091e+01 0.000000e+00 1.324502e+02
         vertex 5.338594e+01 0.000000e+00 1.344201e+02
         vertex 6.800501e+01 9.365959e+01 6.800501e+01
      endloop
   endfacet
   facet normal -2.996644e-01 5.869793e-01 7.521014e-01
      outer loop
         vertex 3.945045e+01 0.000000e+00 1.297247e+02
         vertex 4.629091e+01 0.000000e+00 1.324502e+02
         vertex 6.800501e+01 9.365959e+01 6.800501e+01
      endloop
   endfacet
   facet normal -3.792243e-01 5.869793e-01 7.152931e-01
      outer loop
         vertex 3.294476e+01 0.000000e+00 1.262756e+02
         vertex 3.945045e+01 0.000000e+00 1.297247e+02
         vertex 6.800501e+01 9.365959e+01 6.800501e+01
      endloop
   endfacet
   facet normal -4.543382e-01 5.869793e-01 6.700986e-01
      outer loop
         vertex 2.685013e+01 0.000000e+00 1.221433e+02
         vertex 3.294476e+01 0.000000e+00 1.262756e+02
         vertex 6.800501e+01 9.365959e+01 6.800501e+01
      endloop
   endfacet
   facet normal -5.241251e-01 5.869793e-01 6.170480e-01
      outer loop
         vertex 2.123800e+01 0.000000e+00 1.173763e+02
         vertex 2.685013e+01 0.000000e+00 1.221433e+02
         vertex 6.800501e+01 9.365959e+01 6.800501e+01
      endloop
   endfacet
   facet normal -5.877673e-01 5.869793e-01 5.567629e-01
      outer loop
         vertex 1.617417e+01 0.000000e+00 1.120305e+02
         vertex 2.123800e+01 0.000000e+00 1.173763e+02
         vertex 6.800501e+01 9.365959e+01 6.800501e+01
      endloop
   endfacet
   facet normal -6.445186e-01 5.869793e-01 4.899501e-01
      outer loop
         vertex 1.171801e+01 0.000000e+00 1.061685e+02
         vertex 1.617417e+01 0.000000e+00 1.120305e+02
         vertex 6.800501e+01 9.365959e+01 6.800501e+01
      endloop
   endfacet
   facet normal -6.937133e-01 5.869793e-01 4.173933e-01
      outer loop
         vertex 7.921766e+00 0.000000e+00 9.985913e+01
         vertex 1.171801e+01 0.000000e+00 1.061685e+02
         vertex 6.800501e+01 9.365959e+01 6.800501e+01
      endloop
   endfacet
   facet normal -7.347749e-01 5.869793e-01 3.399429e-01
      outer loop
         vertex 4.829943e+00 0.000000e+00 9.317626e+01
         vertex 7.921766e+00 0.000000e+00 9.985913e+01
         vertex 6.800501e+01 9.365959e+01 6.800501e+01
      endloop
   endfacet
   facet normal -7.672218e-01 5.869793e-01 2.585073e-01
      outer loop
         vertex 2.478786e+00 0.000000e+00 8.619828e+01
         vertex 4.829943e+00 0.000000e+00 9.317626e+01
         vertex 6.800501e+01 9.365959e+01 6.800501e+01
      endloop
   endfacet
   facet normal -7.906739e-01 5.869793e-01 1.740405e-01
      outer loop
         vertex 8.958653e-01 0.000000e+00 7.900700e+01
         vertex 2.478786e+00 0.000000e+00 8.619828e+01
         vertex 6.800501e+01 9.365959e+01 6.800501e+01
      endloop
   endfacet
   facet normal -8.048560e-01 5.869793e-01 8.753386e-02
      outer loop
         vertex 9.973347e-02 0.000000e+00 7.168673e+01
         vertex 8.958653e-01 0.000000e+00 7.900700e+01
         vertex 6.800501e+01 9.365959e+01 6.800501e+01
      endloop
   endfacet
   facet normal -8.096019e-01 5.869793e-01 0.000000e+00
      outer loop
         vertex 9.973347e-02 0.000000e+00 6.432329e+01
         vertex 9.973347e-02 0.000000e+00 7.168673e+01
         vertex 6.800501e+01 9.365959e+01 6.800501e+01
      endloop
   endfacet
   facet normal -8.048560e-01 5.869793e-01 -8.753386e-02
      outer loop
         vertex 8.958653e-01 0.000000e+00 5.700302e+01
         vertex 9.973347e-02 0.000000e+00 6.432329e+01
         vertex 6.800501e+01 9.365959e+01 6.800501e+01
      endloop
   endfacet
   facet normal -7.906739e-01 5.869793e-01 -1.740405e-01
      outer loop
         vertex 2.478786e+00 0.000000e+00 4.981174e+01
         vertex 8.958653e-01 0.000000e+00 5.700302e+01
         vertex 6.800501e+01 9.365959e+01 6.800501e+01
      endloop
   endfacet
   facet normal -7.672218e-01 5.869793e-01 -2.585073e-01
      outer loop
         vertex 4.829943e+00 0.000000e+00 4.283376e+01
         vertex 2.478786e+00 0.000000e+00 4.981174e+01
         vertex 6.800501e+01 9.365959e+01 6.800501e+01
      endloop
   endfacet
   facet normal -7.347749e-01 5.869793e-01 -3.399429e-01
      outer loop
         vertex 7.921766e+00 0.000000e+00 3.615089e+01
         vertex 4.829943e+00 0.000000e+00 4.283376e+01
         vertex 6.800501e+01 9.365959e+01 6.800501e+01
      endloop
   endfacet
   facet normal -6.937133e-01 5.869793e-01 -4.173933e-01
      outer loop
         vertex 1.171801e+01 0.000000e+00 2.984148e+01
         vertex 7.921766e+00 0.000000e+00 3.615089e+01
         vertex 6.800501e+01 9.365959e+01 6.800501e+01
      endloop
   endfacet
   facet normal -6.445186e-01 5.869793e-01 -4.899501e-01
      outer loop
         vertex 1.617417e+01 0.000000e+00 2.397950e+01
         vertex 1.171801e+01 0.000000e+00 2.984148e+01
         vertex 6.800501e+01 9.365959e+01 6.800501e+01
      endloop
   endfacet
   facet normal -5.877673e-01 5.869793e-01 -5.567629e-01
      outer loop
         vertex 2.123800e+01 0.000000e+00 1.863368e+01
         vertex 1.617417e+01 0.000000e+00 2.397950e+01
         vertex 6.800501e+01 9.365959e+01 6.800501e+01
      endloop
   endfacet
   facet normal -5.241251e-01 5.869793e-01 -6.170480e-01
      outer loop
         vertex 2.685013e+01 0.000000e+00 1.386669e+01
         vertex 2.123800e+01 0.000000e+00 1.863368e+01
         vertex 6.800501e+01 9.365959e+01 6.800501e+01
      endloop
   endfacet
   facet normal -4.543382e-01 5.869793e-01 -6.700986e-01
      outer loop
         vertex 3.294476e+01 0.000000e+00 9.734429e+00
         vertex 2.685013e+01 0.000000e+00 1.386669e+01
         vertex 6.800501e+01 9.365959e+01 6.800501e+01
      endloop
   endfacet
   facet normal -3.792243e-01 5.869793e-01 -7.152931e-01
      outer loop
         vertex 3.945045e+01 0.000000e+00 6.285336e+00
         vertex 3.294476e+01 0.000000e+00 9.734429e+00
         vertex 6.800501e+01 9.365959e+01 6.800501e+01
      endloop
   endfacet
   facet normal -2.996644e-01 5.869793e-01 -7.521014e-01
      outer loop
         vertex 4.629091e+01 0.000000e+00 3.559850e+00
         vertex 3.945045e+01 0.000000e+00 6.285336e+00
         vertex 6.800501e+01 9.365959e+01 6.800501e+01
      endloop
   endfacet
   facet normal -2.165913e-01 5.869793e-01 -7.800920e-01
      outer loop
         vertex 5.338594e+01 0.000000e+00 1.589924e+00
         vertex 4.629091e+01 0.000000e+00 3.559850e+00
         vertex 6.800501e+01 9.365959e+01 6.800501e+01
      endloop
   endfacet
   facet normal -1.309793e-01 5.869793e-01 -7.989366e-01
      outer loop
         vertex 6.065238e+01 0.000000e+00 3.986508e-01
         vertex 5.338594e+01 0.000000e+00 1.589924e+00
         vertex 6.800501e+01 9.365959e+01 6.800501e+01
      endloop
   endfacet
   facet normal -4.383124e-02 5.869793e-01 -8.084146e-01
      outer loop
         vertex 6.800501e+01 0.000000e+00 0.000000e+00
         vertex 6.065238e+01 0.000000e+00 3.986508e-01
         vertex 6.800501e+01 9.365959e+01 6.800501e+01
      endloop
   endfacet
   facet normal 4.383124e-02 5.869793e-01 -8.084146e-01
      outer loop
         vertex 7.535765e+01 0.000000e+00 3.986508e-01
         vertex 6.800501e+01 0.000000e+00 0.000000e+00
         vertex 6.800501e+01 9.365959e+01 6.800501e+01
      endloop
   endfacet
   facet normal 0.000000e+00 -1.000000e+00 0.000000e+00
      outer loop
         vertex 6.800501e+01 0.000000e+00 1.360100e+02
         vertex 6.065238e+01 0.000000e+00 1.356114e+02
         vertex 6.800501e+01 0.000000e+00 6.800501e+01
      endloop
   endfacet
   facet normal -0.000000e+00 -1.000000e+00 0.000000e+00
      outer loop
         vertex 8.971911e+01 0.000000e+00 1.324502e+02
         vertex 8.262408e+01 0.000000e+00 1.344201e+02
         vertex 6.800501e+01 0.000000e+00 6.800501e+01
      endloop
   endfacet
   facet normal 0.000000e+00 -1.000000e+00 0.000000e+00
      outer loop
         vertex 6.800501e+01 0.000000e+00 6.800501e+01
         vertex 8.262408e+01 0.000000e+00 1.344201e+02
         vertex 7.535765e+01 0.000000e+00 1.356114e+02
      endloop
   endfacet
   facet normal 0.000000e+00 -1.000000e+00 0.000000e+00
      outer loop
         vertex 6.800501e+01 0.000000e+00 6.800501e+01
         vertex 7.535765e+01 0.000000e+00 1.356114e+02
         vertex 6.800501e+01 0.000000e+00 1.360100e+02
      endloop
   endfacet
   facet normal -0.000000e+00 -1.000000e+00 0.000000e+00
      outer loop
         vertex 1.091599e+02 0.000000e+00 1.221433e+02
         vertex 1.030653e+02 0.000000e+00 1.262756e+02
         vertex 6.800501e+01 0.000000e+00 6.800501e+01
      endloop
   endfacet
   facet normal 0.000000e+00 -1.000000e+00 0.000000e+00
      outer loop
         vertex 6.800501e+01 0.000000e+00 6.800501e+01
         vertex 1.030653e+02 0.000000e+00 1.262756e+02
         vertex 9.655957e+01 0.000000e+00 1.297247e+02
      endloop
   endfacet
   facet normal 0.000000e+00 -1.000000e+00 0.000000e+00
      outer loop
         vertex 6.800501e+01 0.000000e+00 6.800501e+01
         vertex 9.655957e+01 0.000000e+00 1.297247e+02
         vertex 8.971911e+01 0.000000e+00 1.324502e+02
      endloop
   endfacet
   facet normal -0.000000e+00 -1.000000e+00 0.000000e+00
      outer loop
         vertex 1.242920e+02 0.000000e+00 1.061685e+02
         vertex 1.198358e+02 0.000000e+00 1.120305e+02
         vertex 6.800501e+01 0.000000e+00 6.800501e+01
      endloop
   endfacet
   facet normal 0.000000e+00 -1.000000e+00 0.000000e+00
      outer loop
         vertex 6.800501e+01 0.000000e+00 6.800501e+01
         vertex 1.198358e+02 0.000000e+00 1.120305e+02
         vertex 1.147720e+02 0.000000e+00 1.173763e+02
      endloop
   endfacet
   facet normal 0.000000e+00 -1.000000e+00 0.000000e+00
      outer loop
         vertex 6.800501e+01 0.000000e+00 6.800501e+01
         vertex 1.147720e+02 0.000000e+00 1.173763e+02
         vertex 1.091599e+02 0.000000e+00 1.221433e+02
      endloop
   endfacet
   facet normal -0.000000e+00 -1.000000e+00 0.000000e+00
      outer loop
         vertex 1.335312e+02 0.000000e+00 8.619828e+01
         vertex 1.311801e+02 0.000000e+00 9.317626e+01
         vertex 6.800501e+01 0.000000e+00 6.800501e+01
      endloop
   endfacet
   facet normal 0.000000e+00 -1.000000e+00 0.000000e+00
      outer loop
         vertex 6.800501e+01 0.000000e+00 6.800501e+01
         vertex 1.311801e+02 0.000000e+00 9.317626e+01
         vertex 1.280883e+02 0.000000e+00 9.985913e+01
      endloop
   endfacet
   facet normal 0.000000e+00 -1.000000e+00 0.000000e+00
      outer loop
         vertex 6.800501e+01 0.000000e+00 6.800501e+01
         vertex 1.280883e+02 0.000000e+00 9.985913e+01
         vertex 1.242920e+02 0.000000e+00 1.061685e+02
      endloop
   endfacet
   facet normal 0.000000e+00 -1.000000e+00 0.000000e+00
      outer loop
         vertex 1.359103e+02 0.000000e+00 6.432329e+01
         vertex 1.359103e+02 0.000000e+00 7.168673e+01
         vertex 6.800501e+01 0.000000e+00 6.800501e+01
      endloop
   endfacet
   facet normal 0.000000e+00 -1.000000e+00 0.000000e+00
      outer loop
         vertex 6.800501e+01 0.000000e+00 6.800501e+01
         vertex 1.359103e+02 0.000000e+00 7.168673e+01
         vertex 1.351142e+02 0.000000e+00 7.900700e+01
      endloop
   endfacet
   facet normal 0.000000e+00 -1.000000e+00 0.000000e+00
      outer loop
         vertex 6.800501e+01 0.000000e+00 6.800501e+01
         vertex 1.351142e+02 0.000000e+00 7.900700e+01
         vertex 1.335312e+02 0.000000e+00 8.619828e+01
      endloop
   endfacet
   facet normal 0.000000e+00 -1.000000e+00 0.000000e+00
      outer loop
         vertex 1.311801e+02 0.000000e+00 4.283376e+01
         vertex 1.335312e+02 0.000000e+00 4.981174e+01
         vertex 6.800501e+01 0.000000e+00 6.800501e+01
      endloop
   endfacet
   facet normal 0.000000e+00 -1.000000e+00 0.000000e+00
      outer loop
         vertex 6.800501e+01 0.000000e+00 6.800501e+01
         vertex 1.335312e+02 0.000000e+00 4.981174e+01
         vertex 1.351142e+02 0.000000e+00 5.700302e+01
      endloop
   endfacet
   facet normal 0.000000e+00 -1.000000e+00 0.000000e+00
      outer loop
         vertex 6.800501e+01 0.000000e+00 6.800501e+01
         vertex 1.351142e+02 0.000000e+00 5.700302e+01
         vertex 1.359103e+02 0.000000e+00 6.432329e+01
      endloop
   endfacet
   facet normal 0.000000e+00 -1.000000e+00 0.000000e+00
      outer loop
         vertex 1.198358e+02 0.000000e+00 2.397950e+01
         vertex 1.242920e+02 0.000000e+00 2.984148e+01
         vertex 6.800501e+01 0.000000e+00 6.800501e+01
      endloop
   endfacet
   facet normal 0.000000e+00 -1.000000e+00 0.000000e+00
      outer loop
         vertex 6.800501e+01 0.000000e+00 6.800501e+01
         vertex 1.242920e+02 0.000000e+00 2.984148e+01
         vertex 1.280883e+02 0.000000e+00 3.615089e+01
      endloop
   endfacet
   facet normal 0.000000e+00 -1.000000e+00 0.000000e+00
      outer loop
         vertex 6.800501e+01 0.000000e+00 6.800501e+01
         vertex 1.280883e+02 0.000000e+00 3.615089e+01
         vertex 1.311801e+02 0.000000e+00 4.283376e+01
      endloop
   endfacet
   facet normal 0.000000e+00 -1.000000e+00 0.000000e+00
      outer loop
         vertex 1.030653e+02 0.000000e+00 9.734429e+00
         vertex 1.091599e+02 0.000000e+00 1.386669e+01
         vertex 6.800501e+01 0.000000e+00 6.800501e+01
      endloop
   endfacet
   facet normal 0.000000e+00 -1.000000e+00 0.000000e+00
      outer loop
         vertex 6.800501e+01 0.000000e+00 6.800501e+01
         vertex 1.091599e+02 0.000000e+00 1.386669e+01
         vertex 1.147720e+02 0.000000e+00 1.863368e+01
      endloop
   endfacet
   facet normal 0.000000e+00 -1.000000e+00 0.000000e+00
      outer loop
         vertex 6.800501e+01 0.000000e+00 6.800501e+01
         vertex 1.147720e+02 0.000000e+00 1.863368e+01
         vertex 1.198358e+02 0.000000e+00 2.397950e+01
      endloop
   endfacet
   facet normal 0.000000e+00 -1.000000e+00 0.000000e+00
      outer loop
         vertex 8.262408e+01 0.000000e+00 1.589924e+00
         vertex 8.971911e+01 0.000000e+00 3.559850e+00
         vertex 6.800501e+01 0.000000e+00 6.800501e+01
      endloop
   endfacet
   facet normal 0.000000e+00 -1.000000e+00 0.000000e+00
      outer loop
         vertex 6.800501e+01 0.000000e+00 6.800501e+01
         vertex 8.971911e+01 0.000000e+00 3.559850e+00
         vertex 9.655957e+01 0.000000e+00 6.285336e+00
      endloop
   endfacet
   facet normal 0.000000e+00 -1.000000e+00 0.000000e+00
      outer loop
         vertex 6.800501e+01 0.000000e+00 6.800501e+01
         vertex 9.655957e+01 0.000000e+00 6.285336e+00
         vertex 1.030653e+02 0.000000e+00 9.734429e+00
      endloop
   endfacet
   facet normal 0.000000e+00 -1.000000e+00 0.000000e+00
      outer loop
         vertex 6.065238e+01 0.000000e+00 3.986508e-01
         vertex 6.800501e+01 0.000000e+00 0.000000e+00
         vertex 6.800501e+01 0.000000e+00 6.800501e+01
      endloop
   endfacet
   facet normal 0.000000e+00 -1.000000e+00 0.000000e+00
      outer loop
         vertex 6.800501e+01 0.000000e+00 6.800501e+01
         vertex 6.800501e+01 0.000000e+00 0.000000e+00
         vertex 7.535765e+01 0.000000e+00 3.986508e-01
      endloop
   endfacet
   facet normal 0.000000e+00 -1.000000e+00 0.000000e+00
      outer loop
         vertex 6.800501e+01 0.000000e+00 6.800501e+01
         vertex 7.535765e+01 0.000000e+00 3.986508e-01
         vertex 8.262408e+01 0.000000e+00 1.589924e+00
      endloop
   endfacet
   facet normal 0.000000e+00 -1.000000e+00 0.000000e+00
      outer loop
         vertex 3.945045e+01 0.000000e+00 6.285336e+00
         vertex 4.629091e+01 0.000000e+00 3.559850e+00
         vertex 6.800501e+01 0.000000e+00 6.800501e+01
      endloop
   endfacet
   facet normal 0.000000e+00 -1.000000e+00 0.000000e+00
      outer loop
         vertex 6.800501e+01 0.000000e+00 6.800501e+01
         vertex 4.629091e+01 0.000000e+00 3.559850e+00
         vertex 5.338594e+01 0.000000e+00 1.589924e+00
      endloop
   endfacet
   facet normal 0.000000e+00 -1.000000e+00 0.000000e+00
      outer loop
         vertex 6.800501e+01 0.000000e+00 6.800501e+01
         vertex 5.338594e+01 0.000000e+00 1.589924e+00
         vertex 6.065238e+01 0.000000e+00 3.986508e-01
      endloop
   endfacet
   facet normal 0.000000e+00 -1.000000e+00 0.000000e+00
      outer loop
         vertex 2.123800e+01 0.000000e+00 1.863368e+01
         vertex 2.685013e+01 0.000000e+00 1.386669e+01
         vertex 6.800501e+01 0.000000e+00 6.800501e+01
      endloop
   endfacet
   facet normal 0.000000e+00 -1.000000e+00 0.000000e+00
      outer loop
         vertex 6.800501e+01 0.000000e+00 6.800501e+01
         vertex 2.685013e+01 0.000000e+00 1.386669e+01
         vertex 3.294476e+01 0.000000e+00 9.734429e+00
      endloop
   endfacet
   facet normal 0.000000e+00 -1.000000e+00 0.000000e+00
      outer loop
         vertex 6.800501e+01 0.000000e+00 6.800501e+01
         vertex 3.294476e+01 0.000000e+00 9.734429e+00
         vertex 3.945045e+01 0.000000e+00 6.285336e+00
      endloop
   endfacet
   facet normal 0.000000e+00 -1.000000e+00 0.000000e+00
      outer loop
         vertex 7.921766e+00 0.000000e+00 3.615089e+01
         vertex 1.171801e+01 0.000000e+00 2.984148e+01
         vertex 6.800501e+01 0.000000e+00 6.800501e+01
      endloop
   endfacet
   facet normal 0.000000e+00 -1.000000e+00 0.000000e+00
      outer loop
         vertex 6.800501e+01 0.000000e+00 6.800501e+01
         vertex 1.171801e+01 0.000000e+00 2.984148e+01
         vertex 1.617417e+01 0.000000e+00 2.397950e+01
      endloop
   endfacet
   facet normal 0.000000e+00 -1.000000e+00 0.000000e+00
      outer loop
         vertex 6.800501e+01 0.000000e+00 6.800501e+01
         vertex 1.617417e+01 0.000000e+00 2.397950e+01
         vertex 2.123800e+01 0.000000e+00 1.863368e+01
      endloop
   endfacet
   facet normal 0.000000e+00 -1.000000e+00 0.000000e+00
      outer loop
         vertex 8.958653e-01 0.000000e+00 5.700302e+01
         vertex 2.478786e+00 0.000000e+00 4.981174e+01
         vertex 6.800501e+01 0.000000e+00 6.800501e+01
      endloop
   endfacet
   facet normal 0.000000e+00 -1.000000e+00 0.000000e+00
      outer loop
         vertex 6.800501e+01 0.000000e+00 6.800501e+01
         vertex 2.478786e+00 0.000000e+00 4.981174e+01
         vertex 4.829943e+00 0.000000e+00 4.283376e+01
      endloop
   endfacet
   facet normal 0.000000e+00 -1.000000e+00 0.000000e+00
      outer loop
         vertex 6.800501e+01 0.000000e+00 6.800501e+01
         vertex 4.829943e+00 0.000000e+00 4.283376e+01
         vertex 7.921766e+00 0.000000e+00 3.615089e+01
      endloop
   endfacet
   facet normal 0.000000e+00 -1.000000e+00 -0.000000e+00
      outer loop
         vertex 8.958653e-01 0.000000e+00 7.900700e+01
         vertex 9.973347e-02 0.000000e+00 7.168673e+01
         vertex 6.800501e+01 0.000000e+00 6.800501e+01
      endloop
   endfacet
   facet normal -0.000000e+00 -1.000000e+00 0.000000e+00
      outer loop
         vertex 6.800501e+01 0.000000e+00 6.800501e+01
         vertex 9.973347e-02 0.000000e+00 7.168673e+01
         vertex 9.973347e-02 0.000000e+00 6.432329e+01
      endloop
   endfacet
   facet normal 0.000000e+00 -1.000000e+00 0.000000e+00
      outer loop
         vertex 6.800501e+01 0.000000e+00 6.800501e+01
         vertex 9.973347e-02 0.000000e+00 6.432329e+01
         vertex 8.958653e-01 0.000000e+00 5.700302e+01
      endloop
   endfacet
   facet normal 0.000000e+00 -1.000000e+00 -0.000000e+00
      outer loop
         vertex 7.921766e+00 0.000000e+00 9.985913e+01
         vertex 4.829943e+00 0.000000e+00 9.317626e+01
         vertex 6.800501e+01 0.000000e+00 6.800501e+01
      endloop
   endfacet
   facet normal 0.000000e+00 -1.000000e+00 0.000000e+00
      outer loop
         vertex 6.800501e+01 0.000000e+00 6.800501e+01
         vertex 4.829943e+00 0.000000e+00 9.317626e+01
         vertex 2.478786e+00 0.000000e+00 8.619828e+01
      endloop
   endfacet
   facet normal 0.000000e+00 -1.000000e+00 0.000000e+00
      outer loop
         vertex 6.800501e+01 0.000000e+00 6.800501e+01
         vertex 2.478786e+00 0.000000e+00 8.619828e+01
         vertex 8.958653e-01 0.000000e+00 7.900700e+01
      endloop
   endfacet
   facet normal 0.000000e+00 -1.000000e+00 -0.000000e+00
      outer loop
         vertex 2.123800e+01 0.000000e+00 1.173763e+02
         vertex 1.617417e+01 0.000000e+00 1.120305e+02
         vertex 6.800501e+01 0.000000e+00 6.800501e+01
      endloop
   endfacet
   facet normal 0.000000e+00 -1.000000e+00 0.000000e+00
      outer loop
         vertex 6.800501e+01 0.000000e+00 6.800501e+01
         vertex 1.617417e+01 0.000000e+00 1.120305e+02
         vertex 1.171801e+01 0.000000e+00 1.061685e+02
      endloop
   endfacet
   facet normal 0.000000e+00 -1.000000e+00 0.000000e+00
      outer loop
         vertex 6.800501e+01 0.000000e+00 6.800501e+01
         vertex 1.171801e+01 0.000000e+00 1.061685e+02
         vertex 7.921766e+00 0.000000e+00 9.985913e+01
      endloop
   endfacet
   facet normal 0.000000e+00 -1.000000e+00 -0.000000e+00
      outer loop
         vertex 3.945045e+01 0.000000e+00 1.297247e+02
         vertex 3.294476e+01 0.000000e+00 1.262756e+02
         vertex 6.800501e+01 0.000000e+00 6.800501e+01
      endloop
   endfacet
   facet normal 0.000000e+00 -1.000000e+00 0.000000e+00
      outer loop
         vertex 6.800501e+01 0.000000e+00 6.800501e+01
         vertex 3.294476e+01 0.000000e+00 1.262756e+02
         vertex 2.685013e+01 0.000000e+00 1.221433e+02
      endloop
   endfacet
   facet normal 0.000000e+00 -1.000000e+00 0.000000e+00
      outer loop
         vertex 6.800501e+01 0.000000e+00 6.800501e+01
         vertex 2.685013e+01 0.000000e+00 1.221433e+02
         vertex 2.123800e+01 0.000000e+00 1.173763e+02
      endloop
   endfacet
   facet normal 0.000000e+00 -1.000000e+00 -0.000000e+00
      outer loop
         vertex 6.065238e+01 0.000000e+00 1.356114e+02
         vertex 5.338594e+01 0.000000e+00 1.344201e+02
         vertex 6.800501e+01 0.000000e+00 6.800501e+01
      endloop
   endfacet
   facet normal 0.000000e+00 -1.000000e+00 0.000000e+00
      outer loop
         vertex 6.800501e+01 0.000000e+00 6.800501e+01
         vertex 5.338594e+01 0.000000e+00 1.344201e+02
         vertex 4.629091e+01 0.000000e+00 1.324502e+02
      endloop
   endfacet
   facet normal 0.000000e+00 -1.000000e+00 0.000000e+00
      outer loop
         vertex 6.800501e+01 0.000000e+00 6.800501e+01
         vertex 4.629091e+01 0.000000e+00 1.324502e+02
         vertex 3.945045e+01 0.000000e+00 1.297247e+02
      endloop
   endfacet
endsolid