solid sectioncylinder
   facet normal 0.000000e+00 1.000000e+00 0.000000e+00
      outer loop
         vertex 0.000000e+00 4.723701e+01 0.000000e+00
         vertex 9.228189e+00 4.723701e+01 1.535828e+01
         vertex 1.075802e+01 4.723701e+01 1.432834e+01
      endloop
   endfacet
   facet normal 0.000000e+00 1.000000e+00 0.000000e+00
      outer loop
         vertex 1.075802e+01 4.723701e+01 1.432834e+01
         vertex 1.217388e+01 4.723701e+01 1.314660e+01
         vertex 0.000000e+00 4.723701e+01 0.000000e+00
      endloop
   endfacet
   facet normal 0.000000e+00 1.000000e+00 0.000000e+00
      outer loop
         vertex 0.000000e+00 4.723701e+01 0.000000e+00
         vertex 1.217388e+01 4.723701e+01 1.314660e+01
         vertex 1.346077e+01 4.723701e+01 1.182557e+01
      endloop
   endfacet
   facet normal 0.000000e+00 1.000000e+00 0.000000e+00
      outer loop
         vertex 0.000000e+00 4.723701e+01 0.000000e+00
         vertex 1.346077e+01 4.723701e+01 1.182557e+01
         vertex 1.460504e+01 4.723701e+01 1.037926e+01
      endloop
   endfacet
   facet normal 0.000000e+00 1.000000e+00 0.000000e+00
      outer loop
         vertex 1.460504e+01 4.723701e+01 1.037926e+01
         vertex 1.559459e+01 4.723701e+01 8.822993e+00
         vertex 0.000000e+00 4.723701e+01 0.000000e+00
      endloop
   endfacet
   facet normal 0.000000e+00 1.000000e+00 0.000000e+00
      outer loop
         vertex 0.000000e+00 4.723701e+01 0.000000e+00
         vertex 1.559459e+01 4.723701e+01 8.822993e+00
         vertex 1.641892e+01 4.723701e+01 7.173249e+00
      endloop
   endfacet
   facet normal 0.000000e+00 1.000000e+00 0.000000e+00
      outer loop
         vertex 0.000000e+00 4.723701e+01 0.000000e+00
         vertex 1.641892e+01 4.723701e+01 7.173249e+00
         vertex 1.706930e+01 4.723701e+01 5.447509e+00
      endloop
   endfacet
   facet normal 0.000000e+00 1.000000e+00 0.000000e+00
      outer loop
         vertex 1.706930e+01 4.723701e+01 5.447509e+00
         vertex 1.753884e+01 4.723701e+01 3.664055e+00
         vertex 0.000000e+00 4.723701e+01 0.000000e+00
      endloop
   endfacet
   facet normal 0.000000e+00 1.000000e+00 0.000000e+00
      outer loop
         vertex 0.000000e+00 4.723701e+01 0.000000e+00
         vertex 1.753884e+01 4.723701e+01 3.664055e+00
         vertex 1.782257e+01 4.723701e+01 1.841784e+00
      endloop
   endfacet
   facet normal 0.000000e+00 1.000000e+00 0.000000e+00
      outer loop
         vertex 0.000000e+00 4.723701e+01 0.000000e+00
         vertex 1.782257e+01 4.723701e+01 1.841784e+00
         vertex 1.791749e+01 4.723701e+01 1.734723e-15
      endloop
   endfacet
   facet normal 0.000000e+00 -1.000000e+00 0.000000e+00
      outer loop
         vertex 0.000000e+00 0.000000e+00 0.000000e+00
         vertex 1.791749e+01 0.000000e+00 0.000000e+00
         vertex 1.782257e+01 0.000000e+00 1.841784e+00
      endloop
   endfacet
   facet normal -0.000000e+00 -1.000000e+00 0.000000e+00
      outer loop
         vertex 1.782257e+01 0.000000e+00 1.841784e+00
         vertex 1.753884e+01 0.000000e+00 3.664055e+00
         vertex 0.000000e+00 0.000000e+00 0.000000e+00
      endloop
   endfacet
   facet normal 0.000000e+00 -1.000000e+00 0.000000e+00
      outer loop
         vertex 0.000000e+00 0.000000e+00 0.000000e+00
         vertex 1.753884e+01 0.000000e+00 3.664055e+00
         vertex 1.706930e+01 0.000000e+00 5.447509e+00
      endloop
   endfacet
   facet normal 0.000000e+00 -1.000000e+00 0.000000e+00
      outer loop
         vertex 0.000000e+00 0.000000e+00 0.000000e+00
         vertex 1.706930e+01 0.000000e+00 5.447509e+00
         vertex 1.641892e+01 0.000000e+00 7.173249e+00
      endloop
   endfacet
   facet normal -0.000000e+00 -1.000000e+00 0.000000e+00
      outer loop
         vertex 1.641892e+01 0.000000e+00 7.173249e+00
         vertex 1.559459e+01 0.000000e+00 8.822993e+00
         vertex 0.000000e+00 0.000000e+00 0.000000e+00
      endloop
   endfacet
   facet normal 0.000000e+00 -1.000000e+00 0.000000e+00
      outer loop
         vertex 0.000000e+00 0.000000e+00 0.000000e+00
         vertex 1.559459e+01 0.000000e+00 8.822993e+00
         vertex 1.460504e+01 0.000000e+00 1.037926e+01
      endloop
   endfacet
   facet normal 0.000000e+00 -1.000000e+00 0.000000e+00
      outer loop
         vertex 0.000000e+00 0.000000e+00 0.000000e+00
         vertex 1.460504e+01 0.000000e+00 1.037926e+01
         vertex 1.346077e+01 0.000000e+00 1.182557e+01
      endloop
   endfacet
   facet normal -0.000000e+00 -1.000000e+00 0.000000e+00
      outer loop
         vertex 1.346077e+01 0.000000e+00 1.182557e+01
         vertex 1.217388e+01 0.000000e+00 1.314660e+01
         vertex 0.000000e+00 0.000000e+00 0.000000e+00
      endloop
   endfacet
   facet normal 0.000000e+00 -1.000000e+00 0.000000e+00
      outer loop
         vertex 0.000000e+00 0.000000e+00 0.000000e+00
         vertex 1.217388e+01 0.000000e+00 1.314660e+01
         vertex 1.075802e+01 0.000000e+00 1.432834e+01
      endloop
   endfacet
   facet normal 0.000000e+00 -1.000000e+00 0.000000e+00
      outer loop
         vertex 0.000000e+00 0.000000e+00 0.000000e+00
         vertex 1.075802e+01 0.000000e+00 1.432834e+01
         vertex 9.228189e+00 0.000000e+00 1.535828e+01
      endloop
   endfacet
   facet normal 9.986748e-01 -0.000000e+00 5.146487e-02
      outer loop
         vertex 1.791749e+01 0.000000e+00 1.097130e-15
         vertex 1.791749e+01 4.723701e+01 1.097130e-15
         vertex 1.782257e+01 4.723701e+01 1.841784e+00
      endloop
   endfacet
   facet normal 9.986748e-01 0.000000e+00 5.146487e-02
      outer loop
         vertex 1.791749e+01 0.000000e+00 1.097130e-15
         vertex 1.782257e+01 4.723701e+01 1.841784e+00
         vertex 1.782257e+01 0.000000e+00 1.841784e+00
      endloop
   endfacet
   facet normal 9.880945e-01 -0.000000e+00 1.538482e-01
      outer loop
         vertex 1.782257e+01 0.000000e+00 1.841784e+00
         vertex 1.782257e+01 4.723701e+01 1.841784e+00
         vertex 1.753884e+01 4.723701e+01 3.664055e+00
      endloop
   endfacet
   facet normal 9.880945e-01 0.000000e+00 1.538482e-01
      outer loop
         vertex 1.782257e+01 0.000000e+00 1.841784e+00
         vertex 1.753884e+01 4.723701e+01 3.664055e+00
         vertex 1.753884e+01 0.000000e+00 3.664055e+00
      endloop
   endfacet
   facet normal 9.670461e-01 -0.000000e+00 2.546014e-01
      outer loop
         vertex 1.753884e+01 0.000000e+00 3.664055e+00
         vertex 1.753884e+01 4.723701e+01 3.664055e+00
         vertex 1.706930e+01 4.723701e+01 5.447509e+00
      endloop
   endfacet
   facet normal 9.670461e-01 0.000000e+00 2.546014e-01
      outer loop
         vertex 1.753884e+01 0.000000e+00 3.664055e+00
         vertex 1.706930e+01 4.723701e+01 5.447509e+00
         vertex 1.706930e+01 0.000000e+00 5.447509e+00
      endloop
   endfacet
   facet normal 9.357519e-01 -0.000000e+00 3.526590e-01
      outer loop
         vertex 1.706930e+01 0.000000e+00 5.447509e+00
         vertex 1.706930e+01 4.723701e+01 5.447509e+00
         vertex 1.641892e+01 4.723701e+01 7.173249e+00
      endloop
   endfacet
   facet normal 9.357519e-01 0.000000e+00 3.526590e-01
      outer loop
         vertex 1.706930e+01 0.000000e+00 5.447509e+00
         vertex 1.641892e+01 4.723701e+01 7.173249e+00
         vertex 1.641892e+01 0.000000e+00 7.173249e+00
      endloop
   endfacet
   facet normal 8.945449e-01 -0.000000e+00 4.469781e-01
      outer loop
         vertex 1.641892e+01 0.000000e+00 7.173249e+00
         vertex 1.641892e+01 4.723701e+01 7.173249e+00
         vertex 1.559459e+01 4.723701e+01 8.822993e+00
      endloop
   endfacet
   facet normal 8.945449e-01 0.000000e+00 4.469781e-01
      outer loop
         vertex 1.641892e+01 0.000000e+00 7.173249e+00
         vertex 1.559459e+01 4.723701e+01 8.822993e+00
         vertex 1.559459e+01 0.000000e+00 8.822993e+00
      endloop
   endfacet
   facet normal 8.438597e-01 -0.000000e+00 5.365638e-01
      outer loop
         vertex 1.559459e+01 0.000000e+00 8.822993e+00
         vertex 1.559459e+01 4.723701e+01 8.822993e+00
         vertex 1.460504e+01 4.723701e+01 1.037926e+01
      endloop
   endfacet
   facet normal 8.438597e-01 0.000000e+00 5.365638e-01
      outer loop
         vertex 1.559459e+01 0.000000e+00 8.822993e+00
         vertex 1.460504e+01 4.723701e+01 1.037926e+01
         vertex 1.460504e+01 0.000000e+00 1.037926e+01
      endloop
   endfacet
   facet normal 7.842353e-01 -0.000000e+00 6.204635e-01
      outer loop
         vertex 1.460504e+01 0.000000e+00 1.037926e+01
         vertex 1.460504e+01 4.723701e+01 1.037926e+01
         vertex 1.346077e+01 4.723701e+01 1.182557e+01
      endloop
   endfacet
   facet normal 7.842353e-01 0.000000e+00 6.204635e-01
      outer loop
         vertex 1.460504e+01 0.000000e+00 1.037926e+01
         vertex 1.346077e+01 4.723701e+01 1.182557e+01
         vertex 1.346077e+01 0.000000e+00 1.182557e+01
      endloop
   endfacet
   facet normal 7.163020e-01 -0.000000e+00 6.977904e-01
      outer loop
         vertex 1.346077e+01 0.000000e+00 1.182557e+01
         vertex 1.346077e+01 4.723701e+01 1.182557e+01
         vertex 1.217388e+01 4.723701e+01 1.314660e+01
      endloop
   endfacet
   facet normal 7.163020e-01 0.000000e+00 6.977904e-01
      outer loop
         vertex 1.346077e+01 0.000000e+00 1.182557e+01
         vertex 1.217388e+01 4.723701e+01 1.314660e+01
         vertex 1.217388e+01 0.000000e+00 1.314660e+01
      endloop
   endfacet
   facet normal 6.407799e-01 -0.000000e+00 7.677246e-01
      outer loop
         vertex 1.217388e+01 0.000000e+00 1.314660e+01
         vertex 1.217388e+01 4.723701e+01 1.314660e+01
         vertex 1.075802e+01 4.723701e+01 1.432834e+01
      endloop
   endfacet
   facet normal 6.407799e-01 0.000000e+00 7.677246e-01
      outer loop
         vertex 1.217388e+01 0.000000e+00 1.314660e+01
         vertex 1.075802e+01 4.723701e+01 1.432834e+01
         vertex 1.075802e+01 0.000000e+00 1.432834e+01
      endloop
   endfacet
   facet normal 5.584691e-01 -0.000000e+00 8.295253e-01
      outer loop
         vertex 1.075802e+01 0.000000e+00 1.432834e+01
         vertex 1.075802e+01 4.723701e+01 1.432834e+01
         vertex 9.228189e+00 4.723701e+01 1.535828e+01
      endloop
   endfacet
   facet normal 5.584691e-01 0.000000e+00 8.295253e-01
      outer loop
         vertex 1.075802e+01 0.000000e+00 1.432834e+01
         vertex 9.228189e+00 4.723701e+01 1.535828e+01
         vertex 9.228189e+00 0.000000e+00 1.535828e+01
      endloop
   endfacet
   facet normal -8.571673e-01 0.000000e+00 5.150381e-01
      outer loop
         vertex 0.000000e+00 0.000000e+00 0.000000e+00
         vertex 9.228189e+00 0.000000e+00 1.535828e+01
         vertex 0.000000e+00 4.723701e+01 0.000000e+00
      endloop
   endfacet
   facet normal -8.571673e-01 0.000000e+00 5.150381e-01
      outer loop
         vertex 0.000000e+00 4.723701e+01 0.000000e+00
         vertex 9.228189e+00 0.000000e+00 1.535828e+01
         vertex 9.228189e+00 4.723701e+01 1.535828e+01
      endloop
   endfacet
   facet normal 0.000000e+00 0.000000e+00 -1.000000e+00
      outer loop
         vertex 1.791749e+01 0.000000e+00 0.000000e+00
         vertex 0.000000e+00 0.000000e+00 0.000000e+00
         vertex 1.791749e+01 4.723701e+01 0.000000e+00
      endloop
   endfacet
   facet normal -0.000000e+00 0.000000e+00 -1.000000e+00
      outer loop
         vertex 1.791749e+01 4.723701e+01 0.000000e+00
         vertex 0.000000e+00 0.000000e+00 0.000000e+00
         vertex 0.000000e+00 4.723701e+01 0.000000e+00
      endloop
   endfacet
endsolid